<?xml version="1.0" standalone="no"?>
<!DOCTYPE svg PUBLIC "-//W3C//DTD SVG 20010904//EN"
 "http://www.w3.org/TR/2001/REC-SVG-20010904/DTD/svg10.dtd">
<svg version="1.0" xmlns="http://www.w3.org/2000/svg"
 width="256.000000pt" height="256.000000pt" viewBox="0 0 256.000000 256.000000"
 preserveAspectRatio="xMidYMid meet">

<g transform="translate(0.000000,256.000000) scale(0.100000,-0.100000)"
fill="#000000" stroke="none">
<path d="M910 1992 c-8 -2 -58 -47 -110 -98 l-96 -94 -37 45 c-50 59 -97 62
-125 8 -16 -30 -7 -49 66 -137 49 -60 68 -76 89 -76 20 0 55 29 155 127 71 70
131 138 135 150 10 42 -36 87 -77 75z"/>
<path d="M1135 1815 c-30 -29 -32 -58 -5 -85 19 -19 33 -20 439 -20 l420 0 20
27 c24 30 20 58 -11 86 -19 16 -54 17 -430 17 l-409 0 -24 -25z"/>
<path d="M638 1424 c-45 -24 -58 -62 -58 -164 0 -102 12 -135 60 -164 21 -12
53 -16 120 -16 153 0 180 28 180 185 0 106 -11 135 -61 161 -39 19 -204 19
-241 -2z"/>
<path d="M1255 1320 c-118 -5 -120 -5 -135 -32 -13 -25 -13 -31 0 -55 l16 -28
414 -3 c228 -1 424 0 436 2 43 11 51 96 11 112 -18 7 -596 10 -742 4z"/>
<path d="M642 916 c-48 -26 -62 -64 -62 -164 0 -106 13 -143 60 -167 41 -21
108 -29 175 -20 45 5 62 13 90 41 l35 35 0 100 c0 162 -26 189 -182 189 -56
-1 -102 -6 -116 -14z"/>
<path d="M1130 790 c-25 -25 -25 -51 -1 -81 l19 -24 397 -3 c218 -1 411 2 428
6 56 14 69 83 23 114 -6 4 -199 8 -428 8 -405 0 -419 -1 -438 -20z"/>
</g>
</svg>
